<?xml version="1.0" standalone="no"?>
<svg version="1.0" xmlns="http://www.w3.org/2000/svg"
 width="128.000000pt" height="128.000000pt" viewBox="0 0 128.000000 128.000000"
 preserveAspectRatio="xMidYMid meet">
<style> g { fill: black; } @media (prefers-color-scheme: dark) { g { fill: white; } }
</style>
<g transform="translate(0.000000,128.000000) scale(0.100000,-0.100000)"
fill="#000000" stroke="none">
<path d="M87 873 c-3 -15 -9 -48 -12 -73 -9 -64 -44 -259 -71 -387 -4 -22 -2
-23 66 -23 59 0 70 3 70 17 0 9 5 45 11 80 l11 63 58 0 c55 0 60 -2 81 -32 13
-18 41 -54 63 -80 l39 -48 79 0 79 0 -70 83 c-39 45 -71 85 -71 88 0 4 13 12
28 18 72 30 112 92 112 174 0 40 -6 61 -21 81 -42 54 -69 60 -265 64 l-182 4
-5 -29z m308 -73 c34 -13 49 -53 34 -97 -17 -51 -46 -65 -154 -71 -90 -4 -95
-4 -95 15 0 19 18 125 26 151 4 15 150 17 189 2z"/>
<path d="M590 893 c0 -5 7 -30 15 -57 8 -27 15 -64 15 -82 0 -48 -28 -123 -62
-166 -33 -43 -35 -37 41 -132 l56 -69 7 39 c4 21 14 82 23 134 8 52 19 110 23
128 l7 34 86 -87 c65 -67 90 -86 101 -79 15 9 232 202 333 296 l50 48 -77 0
-78 0 -105 -97 c-58 -54 -109 -99 -113 -100 -4 -2 -47 42 -97 97 l-89 100 -68
0 c-37 0 -68 -3 -68 -7z"/>
<path d="M1178 733 l-76 -78 -22 -127 c-12 -70 -19 -132 -15 -137 7 -12 56
-14 101 -5 l29 6 29 176 c15 97 32 192 36 210 5 17 5 32 1 32 -3 0 -41 -35
-83 -77z"/>
</g>
</svg>
